<svg xmlns="http://www.w3.org/2000/svg" viewBox="0 0 90.002 90.001"><defs><style>.a{fill:#fff;}</style></defs><g transform="translate(-4.999 -5.166)"><path class="a" d="M87.506,68.253A13.665,13.665,0,0,1,68.18,87.577L72.655,83.1,83.032,72.726ZM77.74,67.44,67.369,77.815l-4.477,4.471L52.235,71.633l-.147.145-23.7-23.7.146-.144L20.806,40.2,7.13,7.207l33,13.672,7.732,7.73.052-.053,23.7,23.7-.052.051L82.214,62.966ZM26.9,37.34a7.7,7.7,0,0,0,2.47-1.535c1.76-1.759,1.28-5.083.547-5.818.733.733,4.06,1.212,5.818-.543a7.734,7.734,0,0,0,1.537-2.476,14.94,14.94,0,0,0,.845-2.794L19.154,16.318l-2.909,2.909L24.1,38.185A15.164,15.164,0,0,0,26.9,37.34ZM94.271,26.066,74.1,5.9a2.49,2.49,0,0,0-3.528,0L51.182,25.288l23.7,23.7,4.328-4.33L71.851,37.3a2.312,2.312,0,0,1,3.269-3.269l7.355,7.356L86.8,37.065l-7.355-7.356a2.313,2.313,0,1,1,3.271-3.271l7.353,7.354,4.2-4.194A2.5,2.5,0,0,0,94.271,26.066ZM5.73,70.737a2.5,2.5,0,0,0,0,3.531L25.9,94.435a2.494,2.494,0,0,0,3.53,0l4.2-4.2-7.356-7.353a2.313,2.313,0,0,1,3.27-3.271L36.9,86.974l4.33-4.334-7.356-7.353a2.313,2.313,0,0,1,3.27-3.271l7.356,7.359,4.325-4.329-23.7-23.7Z"/></g></svg>