<svg xmlns="http://www.w3.org/2000/svg" viewBox="0 0 75.237 93.676"><defs><style>.a{fill:#fff;fill-rule:evenodd;}</style></defs><g transform="translate(114 9.936)"><g transform="translate(-114 -9.936)"><path class="a" d="M100.379,35.492h46.591V68.708c0,5.35-4.124,8.025-10.812,8.917V91.557c0,6.911-10.477,6.911-10.477,0V77.847h-4.236v13.71c0,6.911-10.366,6.911-10.366,0V77.513c-5.685-1.115-10.7-4.458-10.7-8.805Zm34.887-23.741,7.8-7.8a2.128,2.128,0,1,1,3.009,3.009l-6.8,6.8c6.688,4.013,11.035,11.369,7.914,19.171H100.713c-3.455-8.583,2.229-16.5,9.92-20.286l-5.907-5.907a2.128,2.128,0,1,1,3.009-3.009l7.245,7.245A32.41,32.41,0,0,1,135.266,11.751Zm25.971,21.4V63.357c0,6.911-10.477,6.911-10.477,0V33.151C150.759,26.241,161.237,26.241,161.237,33.151Zm-64.871,0V63.357c0,6.911-10.366,6.911-10.366,0V33.151C86,26.241,96.366,26.241,96.366,33.151Z" transform="translate(-86 -3.064)"/></g></g></svg>