<svg xmlns="http://www.w3.org/2000/svg" viewBox="0 0 93.721 93.68"><defs><style>.a{fill:#fff;}</style></defs><g transform="translate(0.045)"><g transform="translate(-0.045 0)"><path class="a" d="M46.837,0A46.839,46.839,0,1,1-.045,46.8,46.839,46.839,0,0,1,46.837,0ZM57.769,37.575H35.942a55.655,55.655,0,0,0,0,18.548H57.76a57.669,57.669,0,0,0,.009-18.548Zm-31.411,0a5.715,5.715,0,0,0-.59-.1H11.4a.937.937,0,0,0-1.021.937A37.265,37.265,0,0,0,10.3,55.177a1.1,1.1,0,0,0,1.358,1.03h13.6a6.91,6.91,0,0,0,1.124-.066,70.54,70.54,0,0,1-.028-18.567Zm40.928,0a68.077,68.077,0,0,1,0,18.53,4.965,4.965,0,0,0,.618.094H82.266a.937.937,0,0,0,1.021-.937,36.957,36.957,0,0,0,0-16.862,1.049,1.049,0,0,0-1.274-.937H68.308c-.3.009-.618.075-1.021.1ZM37.965,27.991h17.8a64.207,64.207,0,0,0-8.928-18.4,64.479,64.479,0,0,0-8.871,18.4Zm0,37.65A65.4,65.4,0,0,0,46.837,84.1,65.576,65.576,0,0,0,55.708,65.65h-17.8ZM79.128,28.1C75.69,21.209,64.42,12.028,59.165,11.757A78.343,78.343,0,0,1,65.31,27.42a1.283,1.283,0,0,0,.993.656c2.81.056,5.621,0,8.431,0h4.394ZM34.405,11.532A37.659,37.659,0,0,0,14.555,27.907a1.274,1.274,0,0,0,.319.159H27.586a1.237,1.237,0,0,0,.806-.759c.787-2.314,1.4-4.684,2.276-6.951C31.773,17.462,33.066,14.651,34.405,11.532ZM14.574,65.575C17.431,72,29.281,81.716,34.434,81.894c-.178-.356-.347-.674-.478-1-1.649-4.075-3.288-8.234-4.918-12.366-.356-.937-.337-2.239-.937-2.7s-1.977-.253-2.988-.253ZM59.09,82.194A37.987,37.987,0,0,0,79.184,65.688a6.278,6.278,0,0,0-.674-.094H66.228a.937.937,0,0,0-1,.871q-2.08,5.93-4.262,11.813C60.486,79.543,59.792,80.742,59.09,82.194Z" transform="translate(0.045 0)"/></g></g></svg>