<svg xmlns="http://www.w3.org/2000/svg" viewBox="0 0 79.739 92.993"><defs><style>.a{fill:#fff;}</style></defs><g transform="translate(-15 -8)"><g transform="translate(15 8)"><path class="a" d="M73.879,960.362c-10.648,3.5-18.946,6.992-17.763,22.141C66.764,980.173,76.245,974.346,73.879,960.362ZM40.061,981.4C29.809,981.4,15,990.253,15,1006.859c0,23.248,15.948,46.5,25.061,46.5,6.835,0,12.53-4.428,17.087-4.428s9.113,4.428,15.948,4.428c9.113,0,19.365-13.285,21.643-25.462-7.974-5.535-13.67-8.857-13.67-18.82,0-6.642,5.7-13.285,12.53-18.82-3.417-4.428-10.252-8.857-17.087-8.857s-14.185,5.255-19.365,5.535C52.591,986.932,46.9,981.4,40.061,981.4Z" transform="translate(-15 -960.362)"/></g></g></svg>